<?xml version="1.0" encoding="UTF-8"?>
<!DOCTYPE svg PUBLIC "-//W3C//DTD SVG 1.1//EN" "http://www.w3.org/Graphics/SVG/1.1/DTD/svg11.dtd">
<svg xmlns="http://www.w3.org/2000/svg" version="1.1" width="512px" height="512px" style="shape-rendering:geometricPrecision; text-rendering:geometricPrecision; image-rendering:optimizeQuality; fill-rule:evenodd; clip-rule:evenodd" xmlns:xlink="http://www.w3.org/1999/xlink">
<g><path style="opacity:0.984" fill="#3aa2e9" d="M 271.5,103.5 C 222.204,100.341 174.537,89.841 128.5,72C 126.416,71.3028 124.749,70.1361 123.5,68.5C 123.334,61.4921 123.5,54.4921 124,47.5C 125.185,38.6075 129.685,32.1075 137.5,28C 144.01,26.8369 149.676,28.5035 154.5,33C 175.187,53.8483 198.854,70.5149 225.5,83C 241.277,89.0599 256.611,95.8932 271.5,103.5 Z"/></g>
<g><path style="opacity:0.994" fill="#349fe3" d="M 123.5,68.5 C 124.749,70.1361 126.416,71.3028 128.5,72C 174.537,89.841 222.204,100.341 271.5,103.5C 281.2,107.677 289.867,113.344 297.5,120.5C 240.203,120.28 184.37,110.28 130,90.5C 129.51,91.7932 129.343,93.1266 129.5,94.5C 126.626,86.1485 124.626,77.4818 123.5,68.5 Z"/></g>
<g><path style="opacity:0.998" fill="#59b4fe" d="M 135.5,112.5 C 140.037,113.819 144.703,114.653 149.5,115C 172.285,115.677 194.952,117.677 217.5,121C 231.863,124.842 245.53,130.342 258.5,137.5C 273.21,145.693 286.044,156.36 297,169.5C 305.531,180.691 314.031,191.857 322.5,203C 329.166,203.996 331.666,201.163 330,194.5C 326.167,188.833 322.333,183.167 318.5,177.5C 322.527,171.149 326.527,164.816 330.5,158.5C 356.111,114.366 393.111,100.533 441.5,117C 453.629,122.964 462.962,131.798 469.5,143.5C 451.843,228.022 405.176,290.856 329.5,332C 271.239,362.015 210.239,370.182 146.5,356.5C 148.21,350.076 151.21,344.409 155.5,339.5C 183.343,345.643 211.343,346.143 239.5,341C 244.329,340.279 248.829,338.779 253,336.5C 253.978,333.331 253.478,330.497 251.5,328C 239.834,328.998 228.167,330.331 216.5,332C 207.84,332.5 199.173,332.666 190.5,332.5C 192.969,331.683 195.635,331.183 198.5,331C 159.445,316.572 125.111,294.905 95.5,266C 96.448,265.517 97.448,265.351 98.5,265.5C 112.975,268.847 127.642,270.014 142.5,269C 146.644,265.021 146.31,261.355 141.5,258C 132.488,257.599 123.488,257.099 114.5,256.5C 95.928,248.288 79.428,236.955 65,222.5C 60.3578,216.883 57.0244,210.55 55,203.5C 53.8898,196.254 56.7232,191.087 63.5,188C 67.0704,186.69 70.737,185.857 74.5,185.5C 90.1143,198.468 108.114,204.968 128.5,205C 132.644,201.021 132.31,197.355 127.5,194C 122.437,193.752 117.437,193.085 112.5,192C 105.024,189.424 97.6905,186.591 90.5,183.5C 71.9304,166.035 58.0971,145.368 49,121.5C 46.4498,112.531 47.1165,103.865 51,95.5C 55.9828,89.4703 62.1495,87.9703 69.5,91C 90.879,100.196 112.879,107.362 135.5,112.5 Z"/></g>
<g><path style="opacity:0.995" fill="#2d9adc" d="M 297.5,120.5 C 303.5,125.833 309.167,131.5 314.5,137.5C 295.802,138.4 277.135,138.4 258.5,137.5C 245.53,130.342 231.863,124.842 217.5,121C 194.952,117.677 172.285,115.677 149.5,115C 144.703,114.653 140.037,113.819 135.5,112.5C 132.934,106.698 130.934,100.698 129.5,94.5C 129.343,93.1266 129.51,91.7932 130,90.5C 184.37,110.28 240.203,120.28 297.5,120.5 Z"/></g>
<g><path style="opacity:1" fill="#252728" d="M 416.5,144.5 C 417.816,154.867 413.149,160.534 402.5,161.5C 399.021,153.593 401.354,147.76 409.5,144C 412.039,143.204 414.372,143.371 416.5,144.5 Z"/></g>
<g><path style="opacity:0.998" fill="#54b1fb" d="M 469.5,143.5 C 473.204,149.257 475.537,155.591 476.5,162.5C 476.704,165.518 477.037,168.518 477.5,171.5C 477.5,175.833 477.5,180.167 477.5,184.5C 476.15,192.556 474.15,200.556 471.5,208.5C 464.399,220.781 455.566,231.781 445,241.5C 441.91,245.739 439.077,250.072 436.5,254.5C 362.554,349.53 265.221,387.864 144.5,369.5C 144.156,364.878 144.823,360.545 146.5,356.5C 210.239,370.182 271.239,362.015 329.5,332C 405.176,290.856 451.843,228.022 469.5,143.5 Z"/></g>
<g><path style="opacity:1" fill="#161718" d="M 416.5,144.5 C 424.732,147.976 427.232,153.976 424,162.5C 418.759,168.84 412.592,170.007 405.5,166C 403.859,164.871 402.859,163.371 402.5,161.5C 413.149,160.534 417.816,154.867 416.5,144.5 Z"/></g>
<g><path style="opacity:1" fill="#198fc9" d="M 258.5,137.5 C 277.135,138.4 295.802,138.4 314.5,137.5C 320.601,143.931 325.934,150.931 330.5,158.5C 326.527,164.816 322.527,171.149 318.5,177.5C 322.333,183.167 326.167,188.833 330,194.5C 331.666,201.163 329.166,203.996 322.5,203C 314.031,191.857 305.531,180.691 297,169.5C 286.044,156.36 273.21,145.693 258.5,137.5 Z"/></g>
<g><path style="opacity:0.989" fill="#f7ea4e" d="M 476.5,162.5 C 489.195,166.508 499.862,173.508 508.5,183.5C 498.407,185.318 488.74,183.985 479.5,179.5C 478.832,176.694 478.166,174.028 477.5,171.5C 477.037,168.518 476.704,165.518 476.5,162.5 Z"/></g>
<g><path style="opacity:1" fill="#198ec9" d="M 90.5,183.5 C 97.6905,186.591 105.024,189.424 112.5,192C 117.437,193.085 122.437,193.752 127.5,194C 132.31,197.355 132.644,201.021 128.5,205C 108.114,204.968 90.1143,198.468 74.5,185.5C 79.8333,184.833 85.1667,184.167 90.5,183.5 Z"/></g>
<g><path style="opacity:0.995" fill="#ebda3e" d="M 477.5,171.5 C 478.166,174.028 478.832,176.694 479.5,179.5C 488.74,183.985 498.407,185.318 508.5,183.5C 509.272,184.694 510.272,185.694 511.5,186.5C 511.5,189.167 511.5,191.833 511.5,194.5C 510.833,195.167 510.167,195.833 509.5,196.5C 499.383,196.089 489.383,194.256 479.5,191C 477.75,189.246 477.083,187.079 477.5,184.5C 477.5,180.167 477.5,175.833 477.5,171.5 Z"/></g>
<g><path style="opacity:0.969" fill="#ddca31" d="M 477.5,184.5 C 477.083,187.079 477.75,189.246 479.5,191C 489.383,194.256 499.383,196.089 509.5,196.5C 505.055,200.726 499.721,203.56 493.5,205C 486.238,206.658 478.905,207.824 471.5,208.5C 474.15,200.556 476.15,192.556 477.5,184.5 Z"/></g>
<g><path style="opacity:1" fill="#118ac1" d="M 114.5,256.5 C 123.488,257.099 132.488,257.599 141.5,258C 146.31,261.355 146.644,265.021 142.5,269C 127.642,270.014 112.975,268.847 98.5,265.5C 96.0248,264.869 93.6915,263.869 91.5,262.5C 98.949,260.005 106.616,258.005 114.5,256.5 Z"/></g>
<g><path style="opacity:0.999" fill="#42a7ed" d="M 91.5,262.5 C 93.6915,263.869 96.0248,264.869 98.5,265.5C 97.448,265.351 96.448,265.517 95.5,266C 125.111,294.905 159.445,316.572 198.5,331C 195.635,331.183 192.969,331.683 190.5,332.5C 180.044,332.042 169.711,330.709 159.5,328.5C 137.359,322.762 117.026,313.262 98.5,300C 91.0557,294.235 85.5557,287.069 82,278.5C 80.8152,270.531 83.9819,265.197 91.5,262.5 Z"/></g>
<g><path style="opacity:0.998" fill="#4faef7" d="M 436.5,254.5 C 431.242,268.592 427.242,282.925 424.5,297.5C 423.883,297.389 423.383,297.056 423,296.5C 354.785,365.584 271.952,397.084 174.5,391C 165.448,390.159 156.448,388.992 147.5,387.5C 146.297,383.89 145.297,380.223 144.5,376.5C 144.5,374.167 144.5,371.833 144.5,369.5C 265.221,387.864 362.554,349.53 436.5,254.5 Z"/></g>
<g><path style="opacity:0.998" fill="#43a8ee" d="M 424.5,297.5 C 423.012,307.939 421.012,318.273 418.5,328.5C 345.116,390.957 260.116,417.957 163.5,409.5C 156.265,403.591 150.931,396.258 147.5,387.5C 156.448,388.992 165.448,390.159 174.5,391C 271.952,397.084 354.785,365.584 423,296.5C 423.383,297.056 423.883,297.389 424.5,297.5 Z"/></g>
<g><path style="opacity:0.997" fill="#3ba4e8" d="M 418.5,328.5 C 416.625,335.673 414.292,342.673 411.5,349.5C 410.448,349.351 409.448,349.517 408.5,350C 340.918,402.245 264.251,426.078 178.5,421.5C 172.898,418.229 167.898,414.229 163.5,409.5C 260.116,417.957 345.116,390.957 418.5,328.5 Z"/></g>
<g><path style="opacity:1" fill="#0f89c0" d="M 155.5,339.5 C 156.644,336.553 158.311,333.887 160.5,331.5C 160.137,330.817 159.804,330.15 159.5,329.5C 159.5,329.167 159.5,328.833 159.5,328.5C 169.711,330.709 180.044,332.042 190.5,332.5C 199.173,332.666 207.84,332.5 216.5,332C 228.167,330.331 239.834,328.998 251.5,328C 253.478,330.497 253.978,333.331 253,336.5C 248.829,338.779 244.329,340.279 239.5,341C 211.343,346.143 183.343,345.643 155.5,339.5 Z"/></g>
<g><path style="opacity:0.993" fill="#339ee2" d="M 134.5,343.5 C 136.482,346.111 137.482,349.111 137.5,352.5C 136.766,358.202 134.933,363.535 132,368.5C 119.367,383.791 103.867,395.291 85.5,403C 61.2737,413.893 35.9403,418.726 9.5,417.5C 4.74172,415.077 1.40838,411.411 -0.5,406.5C -0.5,403.167 -0.5,399.833 -0.5,396.5C -0.166667,396.5 0.166667,396.5 0.5,396.5C 8.99487,402.335 18.4949,405.002 29,404.5C 55.6723,403.722 79.5056,395.222 100.5,379C 106.68,373.8 110.68,367.3 112.5,359.5C 112.36,357.97 111.693,356.97 110.5,356.5C 118.465,352.183 126.465,347.849 134.5,343.5 Z"/></g>
<g><path style="opacity:0.984" fill="#3aa2e9" d="M 110.5,356.5 C 111.693,356.97 112.36,357.97 112.5,359.5C 110.68,367.3 106.68,373.8 100.5,379C 79.5056,395.222 55.6723,403.722 29,404.5C 18.4949,405.002 8.99487,402.335 0.5,396.5C 0.414228,395.504 0.747561,394.671 1.5,394C 3.5,393 5.5,392 7.5,391C 43.258,383.581 77.5913,372.081 110.5,356.5 Z"/></g>
<g><path style="opacity:0.993" fill="#2e9de0" d="M 411.5,349.5 C 393.623,391.208 363.29,419.708 320.5,435C 284.699,445.556 248.699,446.223 212.5,437C 205.611,434.983 198.944,432.483 192.5,429.5C 187.833,426.833 183.167,424.167 178.5,421.5C 264.251,426.078 340.918,402.245 408.5,350C 409.448,349.517 410.448,349.351 411.5,349.5 Z"/></g>
<g><path style="opacity:0.992" fill="#108ac1" d="M 144.5,376.5 C 145.297,380.223 146.297,383.89 147.5,387.5C 150.931,396.258 156.265,403.591 163.5,409.5C 167.898,414.229 172.898,418.229 178.5,421.5C 183.167,424.167 187.833,426.833 192.5,429.5C 172.989,460.274 144.989,477.941 108.5,482.5C 129.364,467.784 144.531,448.45 154,424.5C 156.093,418.567 156.926,412.567 156.5,406.5C 152.458,409.556 148.458,412.556 144.5,415.5C 132.247,423.033 119.247,429.033 105.5,433.5C 85.1528,437.568 64.8195,437.401 44.5,433C 38.8394,431.762 33.506,429.928 28.5,427.5C 65.4367,422.688 99.1034,409.521 129.5,388C 134.301,384.201 138.801,380.034 143,375.5C 143.383,376.056 143.883,376.389 144.5,376.5 Z"/></g>
<g><path style="opacity:1" fill="#2496d4" d="M 159.5,329.5 C 159.804,330.15 160.137,330.817 160.5,331.5C 158.311,333.887 156.644,336.553 155.5,339.5C 151.21,344.409 148.21,350.076 146.5,356.5C 144.823,360.545 144.156,364.878 144.5,369.5C 144.5,371.833 144.5,374.167 144.5,376.5C 143.883,376.389 143.383,376.056 143,375.5C 138.801,380.034 134.301,384.201 129.5,388C 99.1034,409.521 65.4367,422.688 28.5,427.5C 21.2084,425.849 14.875,422.516 9.5,417.5C 35.9403,418.726 61.2737,413.893 85.5,403C 103.867,395.291 119.367,383.791 132,368.5C 134.933,363.535 136.766,358.202 137.5,352.5C 137.482,349.111 136.482,346.111 134.5,343.5C 142.699,338.568 151.032,333.901 159.5,329.5 Z"/></g>
<g><path style="opacity:0.989" fill="#2597d5" d="M 108.5,482.5 C 101.5,483.833 94.5,483.833 87.5,482.5C 116.124,470.705 135.291,450.039 145,420.5C 145.78,418.613 145.613,416.946 144.5,415.5C 148.458,412.556 152.458,409.556 156.5,406.5C 156.926,412.567 156.093,418.567 154,424.5C 144.531,448.45 129.364,467.784 108.5,482.5 Z"/></g>
<g><path style="opacity:0.979" fill="#38a1e7" d="M 144.5,415.5 C 145.613,416.946 145.78,418.613 145,420.5C 135.291,450.039 116.124,470.705 87.5,482.5C 77.0145,482.055 71.8479,476.722 72,466.5C 73.6427,464.023 75.476,461.69 77.5,459.5C 87.1805,451.151 96.5139,442.484 105.5,433.5C 119.247,429.033 132.247,423.033 144.5,415.5 Z"/></g>
</svg>
